<!-- <svg xmlns="http://www.w3.org/2000/svg" width="1em" height="1em" viewBox="0 0 24 24"><path fill="#0fa958" d="M21 4H2v2h2.3l3.28 9a3 3 0 0 0 2.82 2H19v-2h-8.6a1 1 0 0 1-.94-.66L9 13h9.28a2 2 0 0 0 1.92-1.45L22 5.27A1 1 0 0 0 21.27 4A.84.84 0 0 0 21 4m-2.75 7h-10L6.43 6h13.24z"/><circle cx="10.5" cy="19.5" r="1.5" fill="#0fa958"/><circle cx="16.5" cy="19.5" r="1.5" fill="#0fa958"/></svg> -->

<svg xmlns="http://www.w3.org/2000/svg" width="1em" height="1em" viewBox="0 0 24 24"><path fill="#0fa958" fill-rule="evenodd" d="M4 4c0-.6.4-1 1-1h1.5c.5 0 .9.3 1 .8L7.9 6H19a1 1 0 0 1 1 1.2l-1.3 6a1 1 0 0 1-1 .8h-8l.2 1H17a3 3 0 1 1-2.8 2h-2.4a3 3 0 1 1-4-1.8L5.7 5H5a1 1 0 0 1-1-1" clip-rule="evenodd"/></svg>